<svg width="16" height="16" viewBox="0 0 16 16" fill="none" xmlns="http://www.w3.org/2000/svg">
<path d="M15 6.34733L9.91589 5.99998L8 1L6.08411 6.00001L1 6.34735L4.9008 9.78246L3.62106 15L8 12.1249L12.3789 15L11.0992 9.78269L15 6.34733ZM8 11.1168L4.92481 13.1359L5.82243 9.47633L3.07345 7.05943L6.65469 6.81505L8 3.30416L9.34531 6.81508L12.9307 7.05943L10.1775 9.4761L11.0752 13.1359L8 11.1168Z" fill="#000"/>
<path d="M8 11.1168L4.92481 13.1359L5.82243 9.47633L3.07345 7.05943L6.65469 6.81505L8 3.30416L9.34531 6.81508L12.9307 7.05943L10.1775 9.4761L11.0752 13.1359L8 11.1168Z" fill="#000"/>
<path d="M15 6.34733L9.91589 5.99998L8 1L6.08411 6.00001L1 6.34735L4.9008 9.78246L3.62106 15L8 12.1249L12.3789 15L11.0992 9.78269L15 6.34733ZM8 11.1168L4.92481 13.1359L5.82243 9.47633L3.07345 7.05943L6.65469 6.81505L8 3.30416L9.34531 6.81508L12.9307 7.05943L10.1775 9.4761L11.0752 13.1359L8 11.1168Z" stroke="#0" stroke-width="0.5"/>
<path d="M8 11.1168L4.92481 13.1359L5.82243 9.47633L3.07345 7.05943L6.65469 6.81505L8 3.30416L9.34531 6.81508L12.9307 7.05943L10.1775 9.4761L11.0752 13.1359L8 11.1168Z" stroke="#000" stroke-width="0.5"/>
</svg>
